# xmcd
# Track frame offsets:
# 150
# 56515
# 72300
# 91347
# 117835
# 157352
# 187105
# 219392
# 244192
# 264480
# 316547
#
# Disc length: 4428 seconds
# Revision: 0
# Processed by: cddbd v1.5PL3 Copyright (c) Steve Scherf et al.
# Submitted via: VisiTrax 2.9.7.197 - For more info visit www.synapsa.com
#
DISCID=9c114a0b
DTITLE=Sharrie Williams and The Wiseguys - Live
DYEAR=2003
DGENRE=
TTITLE0=I've got to find me a mojo
TTITLE1=Talking aint botherin me abit
TTITLE2=All cried out
TTITLE3=Although I sing the blues
TTITLE4=Blues as blues
TTITLE5=Real woman
TTITLE6=Strong hold
TTITLE7=Whats wrong with you
TTITLE8=A good man is hard to find
TTITLE9=Tell Momma - Purple Rain
TTITLE10=Testimony
EXTD=
EXTT0=
EXTT1=
EXTT2=
EXTT3=
EXTT4=
EXTT5=
EXTT6=
EXTT7=
EXTT8=
EXTT9=
EXTT10=
PLAYORDER=
